<svg xmlns="http://www.w3.org/2000/svg" xmlns:xlink="http://www.w3.org/1999/xlink" width="500" zoomAndPan="magnify" viewBox="0 0 375 374.999991" height="500" preserveAspectRatio="xMidYMid meet" version="1.0"><defs><clipPath id="74ebfb7d31"><path d="M 1.742188 37.5 L 240 37.5 L 240 214 L 1.742188 214 Z M 1.742188 37.5 " clip-rule="nonzero"/></clipPath><clipPath id="f723518cae"><path d="M 134.699219 122.148438 L 372.992188 122.148438 L 372.992188 337.492188 L 134.699219 337.492188 Z M 134.699219 122.148438 " clip-rule="nonzero"/></clipPath></defs><g clip-path="url(#74ebfb7d31)"><path fill="#212121" d="M 127.675781 142.710938 L 96.09375 142.710938 C 93.933594 142.710938 91.980469 143.597656 90.578125 145.027344 L 48.164062 187.472656 L 48.164062 150.453125 C 48.164062 146.179688 44.699219 142.710938 40.429688 142.710938 L 28.058594 142.710938 C 25.089844 142.710938 22.386719 141.492188 20.425781 139.527344 C 18.457031 137.558594 17.238281 134.855469 17.238281 131.886719 L 17.238281 63.808594 C 17.238281 60.835938 18.457031 58.128906 20.425781 56.167969 C 22.386719 54.199219 25.089844 52.976562 28.058594 52.976562 L 213.605469 52.976562 C 216.570312 52.976562 219.277344 54.199219 221.242188 56.167969 C 223.207031 58.128906 224.425781 60.835938 224.425781 63.808594 L 224.425781 114.65625 L 239.894531 114.65625 L 239.894531 63.808594 C 239.894531 56.5625 236.941406 49.988281 232.175781 45.21875 C 227.417969 40.457031 220.839844 37.5 213.605469 37.5 L 28.058594 37.5 C 20.824219 37.5 14.25 40.457031 9.488281 45.21875 C 4.726562 49.988281 1.773438 56.5625 1.773438 63.808594 L 1.773438 131.886719 C 1.773438 139.125 4.726562 145.707031 9.488281 150.472656 C 14.25 155.234375 20.824219 158.195312 28.058594 158.195312 L 32.695312 158.195312 L 32.695312 206.15625 C 32.695312 208.136719 33.449219 210.117188 34.960938 211.628906 C 37.980469 214.652344 42.878906 214.652344 45.898438 211.628906 L 99.296875 158.195312 L 127.144531 158.195312 L 127.144531 148.703125 C 127.144531 146.679688 127.328125 144.675781 127.675781 142.710938 " fill-opacity="1" fill-rule="nonzero"/></g><g clip-path="url(#f723518cae)"><path fill="#212121" d="M 346.714844 137.875 L 253.941406 137.875 L 253.941406 122.398438 L 346.714844 122.398438 C 353.953125 122.398438 360.523438 125.351562 365.285156 130.121094 C 370.042969 134.882812 373.003906 141.460938 373.003906 148.703125 L 373.003906 255.480469 C 373.003906 262.722656 370.042969 269.300781 365.285156 274.066406 C 360.523438 278.832031 353.953125 281.785156 346.714844 281.785156 L 342.078125 281.785156 L 342.078125 329.753906 C 342.078125 331.730469 341.324219 333.710938 339.8125 335.222656 C 336.792969 338.246094 331.894531 338.246094 328.875 335.222656 L 275.476562 281.785156 L 253.941406 281.785156 L 253.941406 266.308594 L 278.679688 266.308594 C 280.839844 266.308594 282.789062 267.195312 284.195312 268.625 L 326.609375 311.066406 L 326.609375 274.046875 C 326.609375 269.773438 330.074219 266.308594 334.347656 266.308594 L 346.714844 266.308594 C 349.679688 266.308594 352.382812 265.089844 354.347656 263.125 C 356.316406 261.15625 357.535156 258.453125 357.535156 255.480469 L 357.535156 148.703125 C 357.535156 145.734375 356.316406 143.027344 354.347656 141.0625 C 352.382812 139.097656 349.679688 137.875 346.714844 137.875 Z M 253.941406 137.875 L 161.167969 137.875 C 158.203125 137.875 155.496094 139.097656 153.535156 141.0625 C 151.570312 143.027344 150.347656 145.734375 150.347656 148.703125 L 150.347656 255.480469 C 150.347656 258.453125 151.570312 261.15625 153.535156 263.125 C 155.496094 265.089844 158.203125 266.308594 161.167969 266.308594 L 253.941406 266.308594 L 253.941406 281.785156 L 161.167969 281.785156 C 153.929688 281.785156 147.359375 278.832031 142.597656 274.066406 C 137.835938 269.300781 134.878906 262.722656 134.878906 255.480469 L 134.878906 148.703125 C 134.878906 141.460938 137.835938 134.882812 142.597656 130.121094 C 147.359375 125.351562 153.929688 122.398438 161.167969 122.398438 L 253.941406 122.398438 L 253.941406 137.875 " fill-opacity="1" fill-rule="nonzero"/></g><path fill="#212121" d="M 176.601562 191.363281 C 172.328125 191.363281 168.867188 194.828125 168.867188 199.101562 C 168.867188 203.378906 172.328125 206.839844 176.601562 206.839844 L 331.28125 206.839844 C 335.554688 206.839844 339.015625 203.378906 339.015625 199.101562 C 339.015625 194.828125 335.554688 191.363281 331.28125 191.363281 L 176.601562 191.363281 " fill-opacity="1" fill-rule="nonzero"/><path fill="#212121" d="M 176.601562 160.40625 C 172.328125 160.40625 168.867188 163.871094 168.867188 168.144531 C 168.867188 172.421875 172.328125 175.886719 176.601562 175.886719 L 331.28125 175.886719 C 335.554688 175.886719 339.015625 172.421875 339.015625 168.144531 C 339.015625 163.871094 335.554688 160.40625 331.28125 160.40625 L 176.601562 160.40625 " fill-opacity="1" fill-rule="nonzero"/><path fill="#212121" d="M 176.601562 222.875 C 172.328125 222.875 168.867188 226.339844 168.867188 230.613281 C 168.867188 234.886719 172.328125 238.351562 176.601562 238.351562 L 245.351562 238.351562 C 249.617188 238.351562 253.082031 234.886719 253.082031 230.613281 C 253.082031 226.339844 249.617188 222.875 245.351562 222.875 L 176.601562 222.875 " fill-opacity="1" fill-rule="nonzero"/><path fill="#212121" d="M 126.667969 115.886719 L 114.140625 115.886719 C 114.109375 114.074219 114.089844 112.984375 114.089844 112.582031 C 114.089844 108.519531 114.761719 105.179688 116.105469 102.566406 C 117.445312 99.929688 120.144531 96.992188 124.167969 93.703125 C 128.191406 90.433594 130.609375 88.285156 131.378906 87.261719 C 132.605469 85.667969 133.207031 83.886719 133.207031 81.957031 C 133.207031 79.273438 132.132812 76.972656 129.988281 75.046875 C 127.84375 73.132812 124.960938 72.175781 121.320312 72.175781 C 117.816406 72.175781 114.882812 73.179688 112.515625 75.179688 C 110.167969 77.175781 108.539062 80.230469 107.652344 84.324219 L 94.992188 82.746094 C 95.34375 76.871094 97.84375 71.886719 102.46875 67.792969 C 107.117188 63.699219 113.1875 61.652344 120.730469 61.652344 C 128.644531 61.652344 134.949219 63.730469 139.648438 67.878906 C 144.324219 72.023438 146.671875 76.839844 146.671875 82.359375 C 146.671875 85.398438 145.800781 88.285156 144.089844 91.003906 C 142.363281 93.71875 138.691406 97.429688 133.054688 102.109375 C 130.140625 104.546875 128.328125 106.488281 127.621094 107.964844 C 126.917969 109.441406 126.601562 112.078125 126.667969 115.886719 Z M 114.140625 134.460938 L 114.140625 120.652344 L 127.941406 120.652344 L 127.941406 134.460938 L 114.140625 134.460938 " fill-opacity="1" fill-rule="nonzero"/></svg>