<svg xmlns="http://www.w3.org/2000/svg" xmlns:xlink="http://www.w3.org/1999/xlink" width="500" zoomAndPan="magnify" viewBox="0 0 375 374.999991" height="500" preserveAspectRatio="xMidYMid meet" version="1.0"><defs><clipPath id="242cc98c67"><path d="M 0 7.160156 L 375 7.160156 L 375 367.910156 L 0 367.910156 Z M 0 7.160156 " clip-rule="nonzero"/></clipPath></defs><g clip-path="url(#242cc98c67)"><path fill="#000000" d="M 330.03125 260.125 C 332.378906 262.46875 332.390625 266.269531 330.058594 268.613281 L 282.917969 315.820312 C 280.574219 318.171875 276.769531 318.183594 274.429688 315.847656 C 274.183594 315.605469 273.960938 315.34375 273.773438 315.070312 L 260.367188 296.3125 C 258.445312 293.613281 259.074219 289.855469 261.773438 287.933594 C 264.46875 286.015625 268.226562 286.640625 270.148438 289.339844 L 279.421875 302.328125 L 321.542969 260.152344 C 323.875 257.800781 327.679688 257.792969 330.03125 260.125 Z M 374.867188 287.992188 C 374.867188 310.019531 365.984375 329.988281 351.625 344.457031 C 337.261719 358.921875 317.417969 367.882812 295.515625 367.882812 C 273.613281 367.882812 253.78125 358.921875 239.410156 344.457031 C 237.226562 342.253906 235.183594 339.910156 233.265625 337.476562 L 6.15625 337.476562 C 2.832031 337.476562 0.132812 334.777344 0.132812 331.449219 L 0.132812 46.503906 C 0.132812 43.179688 2.832031 40.480469 6.15625 40.480469 L 38.710938 40.480469 L 38.710938 13.183594 C 38.710938 9.859375 41.402344 7.160156 44.726562 7.160156 L 74.742188 7.160156 C 78.070312 7.160156 80.765625 9.859375 80.765625 13.183594 L 80.765625 40.480469 L 261.398438 40.480469 L 261.398438 13.183594 C 261.398438 9.859375 264.09375 7.160156 267.421875 7.160156 L 297.445312 7.160156 C 300.773438 7.160156 303.46875 9.859375 303.46875 13.183594 L 303.46875 40.480469 L 336.023438 40.480469 C 339.351562 40.480469 342.050781 43.179688 342.050781 46.503906 L 342.050781 97.890625 C 342.058594 98.039062 342.066406 98.179688 342.066406 98.332031 C 342.066406 98.480469 342.058594 98.628906 342.050781 98.769531 L 342.050781 223.320312 C 345.449219 225.800781 348.664062 228.539062 351.625 231.527344 C 365.984375 245.996094 374.867188 265.960938 374.867188 287.992188 Z M 273.453125 19.210938 L 273.453125 63.867188 L 291.433594 63.867188 L 291.433594 19.210938 Z M 50.75 63.867188 L 68.730469 63.867188 L 68.730469 19.210938 L 50.75 19.210938 Z M 12.179688 52.527344 L 12.179688 92.304688 L 330 92.304688 L 330 52.527344 L 303.480469 52.527344 L 303.480469 69.890625 C 303.480469 73.21875 300.78125 75.917969 297.457031 75.917969 L 267.429688 75.917969 C 264.105469 75.917969 261.40625 73.21875 261.40625 69.890625 L 261.40625 52.527344 L 80.777344 52.527344 L 80.777344 69.890625 C 80.777344 73.21875 78.078125 75.917969 74.753906 75.917969 L 44.726562 75.917969 C 41.402344 75.917969 38.703125 73.21875 38.703125 69.890625 L 38.703125 52.527344 Z M 225.441406 325.425781 C 219.539062 314.253906 216.175781 301.511719 216.175781 287.992188 C 216.175781 279.828125 217.402344 271.949219 219.671875 264.519531 C 219.457031 264.546875 219.238281 264.554688 219.015625 264.554688 L 185.4375 264.554688 C 182.113281 264.554688 179.414062 261.859375 179.414062 258.53125 C 179.414062 255.207031 182.113281 252.507812 185.4375 252.507812 L 219.015625 252.507812 C 220.796875 252.507812 222.386719 253.285156 223.492188 254.511719 C 227.445312 245.917969 232.851562 238.140625 239.417969 231.515625 C 253.78125 217.050781 273.621094 208.09375 295.527344 208.09375 C 307.882812 208.09375 319.574219 210.941406 330.011719 216.027344 L 330.011719 104.355469 L 12.179688 104.355469 L 12.179688 325.425781 Z M 362.820312 287.992188 C 362.820312 269.230469 355.285156 252.261719 343.109375 239.996094 C 339.988281 236.859375 336.558594 234.027344 332.878906 231.554688 C 332.773438 231.488281 332.671875 231.421875 332.566406 231.359375 C 321.945312 224.285156 309.214844 220.160156 295.515625 220.160156 C 276.929688 220.160156 260.09375 227.742188 247.925781 240.007812 C 235.746094 252.273438 228.214844 269.242188 228.214844 288 C 228.214844 302.917969 232.984375 316.683594 241.058594 327.871094 C 241.132812 327.972656 241.207031 328.078125 241.273438 328.179688 C 243.296875 330.953125 245.519531 333.566406 247.925781 335.996094 C 260.09375 348.25 276.921875 355.839844 295.515625 355.839844 C 314.101562 355.839844 330.9375 348.261719 343.109375 335.996094 C 355.285156 323.71875 362.820312 306.75 362.820312 287.992188 Z M 94.472656 137.628906 L 60.898438 137.628906 C 57.570312 137.628906 54.871094 140.328125 54.871094 143.652344 C 54.871094 146.980469 57.570312 149.679688 60.898438 149.679688 L 94.472656 149.679688 C 97.796875 149.679688 100.496094 146.980469 100.496094 143.652344 C 100.496094 140.316406 97.796875 137.628906 94.472656 137.628906 Z M 247.710938 207.117188 L 281.285156 207.117188 C 284.613281 207.117188 287.308594 204.417969 287.308594 201.09375 C 287.308594 197.765625 284.613281 195.066406 281.285156 195.066406 L 247.710938 195.066406 C 244.382812 195.066406 241.6875 197.765625 241.6875 201.09375 C 241.6875 204.417969 244.382812 207.117188 247.710938 207.117188 Z M 131.46875 143.644531 L 121.914062 153.210938 C 119.570312 155.5625 119.589844 159.367188 121.941406 161.699219 C 124.292969 164.042969 128.09375 164.023438 130.429688 161.671875 L 139.945312 152.132812 L 149.464844 161.671875 C 151.808594 164.023438 155.609375 164.035156 157.953125 161.699219 C 160.304688 159.359375 160.3125 155.554688 157.980469 153.210938 L 148.425781 143.644531 L 157.980469 134.078125 C 160.324219 131.726562 160.304688 127.921875 157.953125 125.589844 C 155.601562 123.246094 151.796875 123.265625 149.464844 125.617188 L 139.945312 135.15625 L 130.429688 125.617188 C 128.085938 123.265625 124.28125 123.253906 121.941406 125.589844 C 119.589844 127.929688 119.578125 131.734375 121.914062 134.078125 Z M 184.210938 161.710938 C 186.5625 164.050781 190.367188 164.035156 192.699219 161.683594 L 202.21875 152.144531 L 211.734375 161.683594 C 214.078125 164.035156 217.882812 164.042969 220.222656 161.710938 C 222.574219 159.367188 222.585938 155.5625 220.25 153.21875 L 210.695312 143.652344 L 220.25 134.085938 C 222.59375 131.734375 222.574219 127.929688 220.222656 125.597656 C 217.871094 123.253906 214.070312 123.273438 211.734375 125.625 L 202.21875 135.164062 L 192.699219 125.625 C 190.355469 123.273438 186.554688 123.265625 184.210938 125.597656 C 181.859375 127.941406 181.851562 131.746094 184.183594 134.085938 L 193.738281 143.652344 L 184.183594 153.21875 C 181.851562 155.5625 181.859375 159.367188 184.210938 161.710938 Z M 246.484375 161.710938 C 248.835938 164.050781 252.636719 164.035156 254.96875 161.683594 L 264.488281 152.144531 L 274.007812 161.683594 C 276.347656 164.035156 280.152344 164.042969 282.496094 161.710938 C 284.847656 159.367188 284.855469 155.5625 282.523438 153.21875 L 272.96875 143.652344 L 282.523438 134.085938 C 284.863281 131.734375 284.847656 127.929688 282.496094 125.597656 C 280.144531 123.253906 276.339844 123.273438 274.007812 125.625 L 264.488281 135.164062 L 254.96875 125.625 C 252.628906 123.273438 248.824219 123.265625 246.484375 125.597656 C 244.132812 127.941406 244.121094 131.746094 246.453125 134.085938 L 256.011719 143.652344 L 246.453125 153.21875 C 244.121094 155.5625 244.140625 159.367188 246.484375 161.710938 Z M 95.691406 183.027344 C 93.339844 180.683594 89.535156 180.703125 87.203125 183.054688 L 77.675781 192.59375 L 68.15625 183.054688 C 65.816406 180.703125 62.011719 180.695312 59.667969 183.027344 C 57.316406 185.371094 57.308594 189.175781 59.640625 191.515625 L 69.195312 201.082031 L 59.640625 210.648438 C 57.300781 213.003906 57.316406 216.804688 59.667969 219.140625 C 62.019531 221.480469 65.824219 221.464844 68.15625 219.113281 L 77.675781 209.574219 L 87.195312 219.113281 C 89.535156 221.464844 93.339844 221.472656 95.679688 219.140625 C 98.03125 216.796875 98.042969 212.992188 95.710938 210.648438 L 86.152344 201.082031 L 95.710938 191.515625 C 98.050781 189.175781 98.042969 185.371094 95.691406 183.027344 Z M 131.457031 201.09375 L 121.902344 210.660156 C 119.5625 213.011719 119.578125 216.816406 121.929688 219.148438 C 124.28125 221.492188 128.085938 221.472656 130.417969 219.121094 L 139.9375 209.582031 L 149.457031 219.121094 C 151.796875 221.472656 155.601562 221.480469 157.941406 219.148438 C 160.292969 216.804688 160.304688 213.003906 157.972656 210.660156 L 148.414062 201.09375 L 157.972656 191.527344 C 160.3125 189.175781 160.292969 185.371094 157.941406 183.035156 C 155.589844 180.695312 151.789062 180.710938 149.457031 183.066406 L 139.9375 192.601562 L 130.417969 183.066406 C 128.078125 180.710938 124.273438 180.703125 121.929688 183.035156 C 119.578125 185.378906 119.570312 189.183594 121.902344 191.527344 Z M 220.242188 183.027344 C 217.890625 180.683594 214.085938 180.703125 211.753906 183.054688 L 202.238281 192.59375 L 192.71875 183.054688 C 190.375 180.703125 186.574219 180.695312 184.230469 183.027344 C 181.878906 185.371094 181.871094 189.175781 184.203125 191.515625 L 193.757812 201.082031 L 184.203125 210.648438 C 181.859375 213.003906 181.878906 216.804688 184.230469 219.140625 C 186.582031 221.480469 190.386719 221.464844 192.71875 219.113281 L 202.238281 209.574219 L 211.753906 219.113281 C 214.097656 221.464844 217.898438 221.472656 220.242188 219.140625 C 222.59375 216.796875 222.601562 212.992188 220.269531 210.648438 L 210.714844 201.082031 L 220.269531 191.515625 C 222.601562 189.175781 222.59375 185.371094 220.242188 183.027344 Z M 156.734375 252.515625 L 123.160156 252.515625 C 119.832031 252.515625 117.132812 255.214844 117.132812 258.539062 C 117.132812 261.867188 119.832031 264.566406 123.160156 264.566406 L 156.734375 264.566406 C 160.058594 264.566406 162.757812 261.867188 162.757812 258.539062 C 162.757812 255.207031 160.058594 252.515625 156.734375 252.515625 Z M 94.464844 252.515625 L 60.886719 252.515625 C 57.5625 252.515625 54.863281 255.214844 54.863281 258.539062 C 54.863281 261.867188 57.5625 264.566406 60.886719 264.566406 L 94.464844 264.566406 C 97.789062 264.566406 100.488281 261.867188 100.488281 258.539062 C 100.488281 255.207031 97.789062 252.515625 94.464844 252.515625 Z M 94.464844 252.515625 " fill-opacity="1" fill-rule="nonzero"/></g></svg>