<svg xmlns="http://www.w3.org/2000/svg" xmlns:xlink="http://www.w3.org/1999/xlink" width="500" zoomAndPan="magnify" viewBox="0 0 375 374.999991" height="500" preserveAspectRatio="xMidYMid meet" version="1.0"><defs><g/></defs><g fill="#222222" fill-opacity="1"><g transform="translate(3.641374, 234.618461)"><g><path d="M 109.898438 -91.117188 C 120.050781 -91.117188 178.9375 -119.542969 178.9375 -144.671875 C 178.9375 -169.546875 128.933594 -185.535156 99.492188 -185.535156 C 69.796875 -185.535156 0 -127.921875 0 -85.535156 C 0 -57.867188 28.171875 -39.339844 40.101562 -39.339844 C 56.09375 -39.339844 91.878906 -61.421875 104.316406 -61.421875 C 107.109375 -61.421875 108.628906 -59.898438 108.628906 -57.359375 C 108.628906 -43.65625 71.320312 -0.507812 45.433594 -0.507812 C 22.082031 -0.507812 21.574219 -11.167969 21.574219 -17.257812 C 21.574219 -20.558594 26.902344 -22.84375 26.902344 -25.382812 C 26.902344 -27.410156 25.128906 -28.171875 23.097656 -28.171875 C 21.066406 -28.171875 13.707031 -22.335938 13.707031 -18.273438 C 13.707031 -0.761719 57.613281 28.171875 77.410156 28.171875 C 99.238281 28.171875 137.058594 -14.46875 137.058594 -43.402344 C 137.058594 -56.347656 114.722656 -79.441406 92.386719 -79.441406 C 74.113281 -79.441406 46.195312 -63.453125 38.324219 -63.453125 C 37.054688 -63.453125 36.292969 -63.960938 36.292969 -64.976562 C 36.292969 -93.65625 112.4375 -163.199219 137.058594 -163.199219 C 142.894531 -163.199219 144.417969 -160.660156 144.417969 -158.886719 C 144.417969 -145.433594 109.136719 -100.761719 102.03125 -100.761719 C 100 -100.761719 98.984375 -100 98.984375 -98.730469 C 98.984375 -95.941406 104.316406 -91.117188 109.898438 -91.117188 Z M 109.898438 -91.117188 "/></g></g></g><g fill="#222222" fill-opacity="1"><g transform="translate(157.429434, 234.618461)"><g><path d="M 58.121094 -163.960938 C 51.523438 -163.960938 47.714844 -152.03125 47.714844 -145.179688 C 47.714844 -135.789062 61.167969 -121.066406 76.90625 -121.066406 C 82.742188 -121.066406 84.011719 -123.351562 84.011719 -125.636719 C 84.011719 -126.398438 83.503906 -127.921875 83.503906 -129.441406 C 83.503906 -130.710938 83.757812 -131.726562 84.773438 -132.742188 C 86.550781 -134.265625 89.339844 -136.550781 89.339844 -140.609375 C 89.339844 -144.671875 77.917969 -163.960938 58.121094 -163.960938 Z M 33.757812 -4.824219 C 33.757812 -33.503906 71.066406 -91.371094 71.066406 -98.730469 C 71.066406 -106.347656 47.714844 -119.289062 36.546875 -119.289062 C 35.027344 -119.289062 32.488281 -117.515625 32.488281 -113.707031 C 32.488281 -108.882812 -2.539062 -53.554688 -2.539062 -25.382812 C -2.539062 -8.121094 19.035156 8.375 32.234375 8.375 C 48.984375 8.375 68.273438 -28.933594 74.875 -41.625 C 75.382812 -42.640625 75.636719 -43.402344 75.636719 -44.417969 C 75.636719 -46.953125 74.113281 -49.492188 72.589844 -49.492188 C 72.082031 -49.492188 71.574219 -49.238281 71.066406 -48.476562 C 53.808594 -15.988281 43.148438 -1.523438 36.042969 -1.523438 C 34.011719 -1.523438 33.757812 -4.570312 33.757812 -4.824219 Z M 33.757812 -4.824219 "/></g></g></g><g fill="#222222" fill-opacity="1"><g transform="translate(220.365809, 234.618461)"><g><path d="M 118.78125 -42.640625 C 118.78125 -50.507812 100.761719 -65.484375 89.59375 -65.484375 C 76.90625 -65.484375 35.027344 -3.554688 33.25 -3.554688 C 32.488281 -3.554688 31.980469 -4.316406 31.980469 -5.835938 C 31.980469 -17.765625 59.644531 -74.367188 86.296875 -74.367188 C 93.65625 -74.367188 95.941406 -76.398438 95.941406 -80.203125 C 95.941406 -89.085938 75.128906 -110.660156 59.898438 -110.660156 C 38.578125 -110.660156 -4.316406 -51.523438 -4.316406 -20.558594 C -4.316406 -0.507812 24.113281 7.105469 29.949219 7.105469 C 32.234375 7.105469 35.28125 4.824219 38.832031 1.269531 C 49.492188 -9.390625 78.171875 -49.746094 81.472656 -49.746094 C 82.488281 -49.746094 83.25 -49.238281 83.25 -44.925781 C 83.25 -32.742188 78.425781 -12.691406 69.035156 7.105469 C 19.542969 8.375 -27.410156 36.292969 -27.410156 59.644531 C -27.410156 71.574219 -6.851562 78.933594 11.167969 78.933594 C 48.730469 78.933594 83.25 57.359375 102.539062 22.589844 C 120.558594 31.726562 123.097656 47.714844 123.097656 50.761719 C 123.097656 51.269531 123.605469 51.523438 124.113281 51.523438 C 126.652344 51.523438 136.804688 43.402344 136.804688 35.535156 C 136.804688 29.949219 129.949219 17.765625 108.125 11.421875 C 114.976562 -4.570312 118.78125 -22.589844 118.78125 -42.640625 Z M -2.03125 65.992188 C -15.734375 65.992188 -17.511719 60.40625 -17.511719 56.09375 C -17.511719 44.164062 17.511719 17.257812 64.722656 15.734375 C 50.507812 42.132812 27.917969 65.992188 -2.03125 65.992188 Z M -2.03125 65.992188 "/></g></g></g><g fill="#222222" fill-opacity="1"><g transform="translate(353.327524, 234.618461)"><g/></g></g></svg>