<svg xmlns="http://www.w3.org/2000/svg" xmlns:xlink="http://www.w3.org/1999/xlink" width="500" zoomAndPan="magnify" viewBox="0 0 375 374.999991" height="500" preserveAspectRatio="xMidYMid meet" version="1.0"><defs><clipPath id="ea64e1841a"><path d="M 102 165 L 123 165 L 123 279.941406 L 102 279.941406 Z M 102 165 " clip-rule="nonzero"/></clipPath><clipPath id="d18858fb14"><path d="M 251 165 L 272 165 L 272 279.941406 L 251 279.941406 Z M 251 165 " clip-rule="nonzero"/></clipPath><clipPath id="a439aa0a46"><path d="M 60 212 L 78 212 L 78 279.941406 L 60 279.941406 Z M 60 212 " clip-rule="nonzero"/></clipPath><clipPath id="9d7174b111"><path d="M 17 212 L 35 212 L 35 279.941406 L 17 279.941406 Z M 17 212 " clip-rule="nonzero"/></clipPath><clipPath id="d7b7ffe325"><path d="M 297 212 L 315 212 L 315 279.941406 L 297 279.941406 Z M 297 212 " clip-rule="nonzero"/></clipPath><clipPath id="674cdae394"><path d="M 340 212 L 358 212 L 358 279.941406 L 340 279.941406 Z M 340 212 " clip-rule="nonzero"/></clipPath></defs><g clip-path="url(#ea64e1841a)"><path fill="#000000" d="M 122.859375 165.714844 L 102.066406 165.714844 L 103.089844 279.859375 L 110.101562 279.859375 Z M 122.859375 165.714844 " fill-opacity="1" fill-rule="nonzero"/></g><path fill="#000000" d="M 84.5625 148.910156 L 289.523438 148.910156 L 289.523438 163.296875 L 84.5625 163.296875 Z M 84.5625 148.910156 " fill-opacity="1" fill-rule="nonzero"/><g clip-path="url(#d18858fb14)"><path fill="#000000" d="M 251.140625 165.714844 L 271.929688 165.714844 L 270.910156 279.859375 L 263.894531 279.859375 Z M 251.140625 165.714844 " fill-opacity="1" fill-rule="nonzero"/></g><path fill="#000000" d="M 19.703125 98.53125 C 15.101562 98.777344 20.800781 97.007812 9.117188 101.558594 C 0 105.109375 5.808594 175.382812 6.421875 193.03125 C 10.59375 190.84375 14.898438 190.121094 19.15625 189.910156 C 23.699219 189.832031 28.894531 191.472656 33.335938 193.847656 C 22.875 177.277344 23.179688 168.984375 19.703125 98.53125 Z M 19.703125 98.53125 " fill-opacity="1" fill-rule="nonzero"/><path fill="#000000" d="M 9.933594 189.585938 C 32.125 182.769531 67.308594 183.105469 85.003906 189.585938 C 92.9375 192.492188 85.003906 209.332031 85.003906 209.332031 L 9.933594 209.332031 C 9.933594 209.332031 1.761719 192.09375 9.933594 189.585938 Z M 9.933594 189.585938 " fill-opacity="1" fill-rule="nonzero"/><g clip-path="url(#a439aa0a46)"><path fill="#000000" d="M 60.765625 212.324219 L 77.464844 212.324219 L 76.648438 279.859375 L 71.011719 279.859375 Z M 60.765625 212.324219 " fill-opacity="1" fill-rule="nonzero"/></g><g clip-path="url(#9d7174b111)"><path fill="#000000" d="M 34.066406 212.324219 L 17.363281 212.324219 L 18.183594 279.859375 L 23.820312 279.859375 Z M 34.066406 212.324219 " fill-opacity="1" fill-rule="nonzero"/></g><path fill="#000000" d="M 355.328125 98.53125 C 359.929688 98.777344 354.230469 97.007812 365.910156 101.558594 C 375.027344 105.109375 369.21875 175.382812 368.605469 193.03125 C 364.433594 190.84375 360.132812 190.121094 355.875 189.910156 C 351.332031 189.832031 346.132812 191.472656 341.691406 193.847656 C 352.152344 177.277344 351.847656 168.984375 355.328125 98.53125 Z M 355.328125 98.53125 " fill-opacity="1" fill-rule="nonzero"/><path fill="#000000" d="M 365.09375 189.585938 C 342.90625 182.769531 307.71875 183.105469 290.023438 189.585938 C 282.09375 192.492188 290.023438 209.332031 290.023438 209.332031 L 365.09375 209.332031 C 365.09375 209.332031 373.265625 192.09375 365.09375 189.585938 Z M 365.09375 189.585938 " fill-opacity="1" fill-rule="nonzero"/><g clip-path="url(#d7b7ffe325)"><path fill="#000000" d="M 314.265625 212.324219 L 297.5625 212.324219 L 298.382812 279.859375 L 304.015625 279.859375 Z M 314.265625 212.324219 " fill-opacity="1" fill-rule="nonzero"/></g><g clip-path="url(#674cdae394)"><path fill="#000000" d="M 340.960938 212.324219 L 357.664062 212.324219 L 356.84375 279.859375 L 351.207031 279.859375 Z M 340.960938 212.324219 " fill-opacity="1" fill-rule="nonzero"/></g></svg>