<svg xmlns="http://www.w3.org/2000/svg" xmlns:xlink="http://www.w3.org/1999/xlink" width="500" zoomAndPan="magnify" viewBox="0 0 375 374.999991" height="500" preserveAspectRatio="xMidYMid meet" version="1.0"><defs><clipPath id="61a58e1359"><path d="M 26.589844 175 L 302 175 L 302 375 L 26.589844 375 Z M 26.589844 175 " clip-rule="nonzero"/></clipPath><clipPath id="0101ccdc2e"><path d="M 249 91 L 348.339844 91 L 348.339844 190 L 249 190 Z M 249 91 " clip-rule="nonzero"/></clipPath></defs><path fill="#000000" d="M 163.992188 152.875 C 206.121094 152.875 240.398438 118.59375 240.398438 76.457031 C 240.398438 34.320312 206.125 0.0390625 163.992188 0.0390625 C 121.863281 0.0390625 87.589844 34.320312 87.589844 76.457031 C 87.589844 118.59375 121.867188 152.875 163.992188 152.875 Z M 163.992188 152.875 " fill-opacity="1" fill-rule="nonzero"/><g clip-path="url(#61a58e1359)"><path fill="#000000" d="M 163.988281 175.003906 C 88.203125 175.003906 26.546875 236.667969 26.546875 312.46875 L 26.546875 329.484375 C 26.546875 354.558594 46.941406 374.960938 72.015625 374.960938 L 255.96875 374.960938 C 281.042969 374.960938 301.445312 354.558594 301.445312 329.484375 L 301.445312 312.46875 C 301.441406 236.667969 239.785156 175.003906 163.988281 175.003906 Z M 163.988281 175.003906 " fill-opacity="1" fill-rule="nonzero"/></g><g clip-path="url(#0101ccdc2e)"><path fill="#000000" d="M 335.890625 127.882812 L 311.6875 127.882812 L 311.6875 103.671875 C 311.6875 96.769531 306.089844 91.171875 299.191406 91.171875 C 292.289062 91.171875 286.695312 96.769531 286.695312 103.671875 L 286.695312 127.882812 L 262.488281 127.882812 C 255.585938 127.882812 249.992188 133.476562 249.992188 140.378906 C 249.992188 147.28125 255.585938 152.875 262.488281 152.875 L 286.695312 152.875 L 286.695312 177.085938 C 286.695312 183.988281 292.289062 189.582031 299.191406 189.582031 C 306.089844 189.582031 311.6875 183.988281 311.6875 177.085938 L 311.6875 152.875 L 335.890625 152.875 C 342.789062 152.875 348.382812 147.28125 348.382812 140.378906 C 348.382812 133.476562 342.789062 127.882812 335.890625 127.882812 Z M 335.890625 127.882812 " fill-opacity="1" fill-rule="nonzero"/></g></svg>