<svg xmlns="http://www.w3.org/2000/svg" xmlns:xlink="http://www.w3.org/1999/xlink" width="500" zoomAndPan="magnify" viewBox="0 0 375 374.999991" height="500" preserveAspectRatio="xMidYMid meet" version="1.0"><defs><clipPath id="3da881c250"><path d="M 13.359375 0 L 361.359375 0 L 361.359375 375 L 13.359375 375 Z M 13.359375 0 " clip-rule="nonzero"/></clipPath></defs><rect x="-37.5" width="450" fill="#ffffff" y="-37.499999" height="449.999989" fill-opacity="1"/><rect x="-37.5" width="450" fill="#ffffff" y="-37.499999" height="449.999989" fill-opacity="1"/><rect x="-37.5" width="450" fill="#ffffff" y="-37.499999" height="449.999989" fill-opacity="1"/><g clip-path="url(#3da881c250)"><path fill="#000000" d="M 147.214844 0 C 102.988281 0 66.921875 36.097656 66.921875 80.355469 C 66.921875 124.617188 102.988281 160.714844 147.214844 160.714844 C 191.4375 160.714844 227.503906 124.617188 227.503906 80.355469 C 227.503906 36.097656 191.4375 0 147.214844 0 Z M 147.214844 160.714844 C 73.402344 160.714844 13.394531 220.773438 13.394531 294.644531 L 40.15625 294.644531 C 40.15625 235.527344 88.144531 187.5 147.214844 187.5 C 160.28125 187.5 172.722656 190.21875 184.328125 194.511719 C 191.644531 187.394531 200.007812 181.640625 209 176.617188 C 190.390625 166.78125 169.585938 160.714844 147.214844 160.714844 Z M 147.214844 26.785156 C 176.90625 26.785156 200.742188 50.640625 200.742188 80.355469 C 200.742188 110.074219 176.90625 133.929688 147.214844 133.929688 C 117.523438 133.929688 93.683594 110.074219 93.683594 80.355469 C 93.683594 50.640625 117.523438 26.785156 147.214844 26.785156 Z M 254.269531 187.5 L 254.269531 215.75 C 245.800781 217.527344 237.960938 220.980469 230.957031 225.585938 L 210.882812 205.496094 L 191.960938 224.433594 L 212.03125 244.523438 C 207.328125 251.535156 203.878906 259.382812 202.101562 267.855469 L 173.976562 267.855469 L 173.976562 294.644531 L 202.101562 294.644531 C 203.878906 303.222656 207.433594 310.964844 212.03125 317.976562 L 191.960938 338.066406 L 210.882812 357.003906 L 230.957031 336.914062 C 237.960938 341.519531 245.800781 344.96875 254.269531 346.75 L 254.269531 375 L 281.035156 375 L 281.035156 346.855469 C 289.605469 345.074219 297.449219 341.726562 304.453125 337.019531 L 324.421875 357.003906 L 343.34375 338.066406 L 323.375 318.082031 C 328.078125 311.070312 331.425781 303.117188 333.203125 294.644531 L 361.324219 294.644531 L 361.324219 267.855469 L 333.203125 267.855469 C 331.425781 259.277344 328.078125 251.429688 323.375 244.417969 L 343.34375 224.433594 L 324.421875 205.496094 L 304.453125 225.480469 C 297.449219 220.773438 289.503906 217.425781 281.035156 215.644531 L 281.035156 187.5 Z M 267.652344 241.070312 C 290.023438 241.070312 307.796875 258.859375 307.796875 281.25 C 307.796875 303.640625 290.023438 321.429688 267.652344 321.429688 C 245.277344 321.429688 227.503906 303.640625 227.503906 281.25 C 227.503906 258.859375 245.277344 241.070312 267.652344 241.070312 Z M 267.652344 241.070312 " fill-opacity="1" fill-rule="nonzero"/></g></svg>