<svg xmlns="http://www.w3.org/2000/svg" xmlns:xlink="http://www.w3.org/1999/xlink" width="500" zoomAndPan="magnify" viewBox="0 0 375 374.999991" height="500" preserveAspectRatio="xMidYMid meet" version="1.0"><defs><clipPath id="8001775104"><path d="M 0 88.296875 L 375 88.296875 L 375 287.046875 L 0 287.046875 Z M 0 88.296875 " clip-rule="nonzero"/></clipPath></defs><g clip-path="url(#8001775104)"><path fill="#000000" d="M 347.160156 193 C 343.785156 191.101562 340.292969 189.425781 336.710938 187.972656 C 344.449219 179.550781 349.179688 168.316406 349.179688 155.996094 C 349.179688 129.921875 328.007812 108.707031 301.976562 108.707031 C 275.949219 108.707031 254.777344 129.921875 254.777344 155.996094 C 254.777344 168.328125 259.515625 179.566406 267.265625 187.996094 C 261.636719 190.277344 256.226562 193.113281 251.132812 196.46875 C 243.050781 191 234.46875 186.617188 225.558594 183.375 C 236.054688 173.320312 242.609375 159.167969 242.609375 143.503906 C 242.609375 113.0625 217.886719 88.296875 187.5 88.296875 C 157.113281 88.296875 132.390625 113.0625 132.390625 143.503906 C 132.390625 159.167969 138.945312 173.320312 149.441406 183.375 C 140.53125 186.617188 131.949219 191 123.867188 196.472656 C 118.773438 193.113281 113.363281 190.277344 107.734375 187.996094 C 115.484375 179.566406 120.226562 168.328125 120.226562 155.996094 C 120.226562 129.921875 99.050781 108.707031 73.023438 108.707031 C 46.996094 108.707031 25.820312 129.921875 25.820312 155.996094 C 25.820312 168.320312 30.554688 179.554688 38.292969 187.980469 C 35.074219 189.285156 31.925781 190.761719 28.875 192.429688 C 11.140625 202.101562 0.125 220.695312 0.125 240.949219 L 0.125 253.921875 C 0.125 260.019531 5.058594 264.960938 11.144531 264.960938 L 99.324219 264.960938 L 99.324219 276.003906 C 99.324219 282.101562 104.257812 287.046875 110.34375 287.046875 L 264.65625 287.046875 C 270.742188 287.046875 275.675781 282.101562 275.675781 276.003906 L 275.675781 264.960938 L 363.855469 264.960938 C 369.941406 264.960938 374.875 260.019531 374.875 253.921875 L 374.875 240.933594 C 374.875 220.980469 364.257812 202.613281 347.160156 193 Z M 99.324219 242.253906 L 99.324219 242.878906 L 22.167969 242.878906 L 22.167969 240.949219 C 22.167969 228.789062 28.777344 217.625 39.417969 211.824219 C 60.347656 200.402344 86.5625 200.210938 108.007812 212.59375 C 102.417969 221.324219 99.324219 231.582031 99.324219 242.253906 Z M 187.5 110.378906 C 205.734375 110.378906 220.566406 125.238281 220.566406 143.503906 C 220.566406 161.769531 205.734375 176.628906 187.5 176.628906 C 169.265625 176.628906 154.433594 161.769531 154.433594 143.503906 C 154.433594 125.238281 169.265625 110.378906 187.5 110.378906 Z M 253.632812 264.960938 L 231.589844 264.960938 L 231.589844 253.921875 C 231.589844 247.824219 226.652344 242.878906 220.566406 242.878906 C 214.480469 242.878906 209.542969 247.824219 209.542969 253.921875 L 209.542969 264.960938 L 165.457031 264.960938 L 165.457031 253.921875 C 165.457031 247.824219 160.519531 242.878906 154.433594 242.878906 C 148.347656 242.878906 143.410156 247.824219 143.410156 253.921875 L 143.410156 264.960938 L 121.367188 264.960938 L 121.367188 242.253906 C 121.367188 231.410156 126.707031 221.269531 135.652344 215.132812 C 167.53125 193.253906 207.433594 193.230469 239.347656 215.132812 C 248.292969 221.269531 253.632812 231.410156 253.632812 242.253906 Z M 352.832031 242.878906 L 275.675781 242.878906 C 275.589844 242.273438 276.582031 227.570312 266.992188 212.59375 C 288.597656 200.121094 315.183594 200.34375 336.371094 212.257812 C 346.523438 217.964844 352.832031 228.957031 352.832031 240.933594 Z M 352.832031 242.878906 " fill-opacity="1" fill-rule="nonzero"/></g></svg>