<svg xmlns="http://www.w3.org/2000/svg" xmlns:xlink="http://www.w3.org/1999/xlink" width="500" zoomAndPan="magnify" viewBox="0 0 375 374.999991" height="500" preserveAspectRatio="xMidYMid meet" version="1.0"><defs><clipPath id="7172d84631"><path d="M 0 21.5625 L 374.738281 21.5625 L 374.738281 356.8125 L 0 356.8125 Z M 0 21.5625 " clip-rule="nonzero"/></clipPath></defs><g clip-path="url(#7172d84631)"><path fill="#000000" d="M 362.757812 183.820312 L 263.601562 183.820312 L 263.601562 194.5625 L 362.757812 194.5625 Z M 351.585938 168.195312 L 274.773438 168.195312 L 274.773438 178.9375 L 351.585938 178.9375 Z M 351.585938 199.449219 L 274.773438 199.449219 L 274.773438 210.191406 L 351.585938 210.191406 Z M 107.164062 183.820312 L 8.007812 183.820312 L 8.007812 194.5625 L 107.164062 194.5625 Z M 95.988281 168.195312 L 19.183594 168.195312 L 19.183594 178.9375 L 95.988281 178.9375 Z M 95.988281 199.449219 L 19.183594 199.449219 L 19.183594 210.191406 L 95.988281 210.191406 Z M 271.5 285.476562 C 276.328125 295.617188 275.117188 306.703125 267.867188 312.238281 C 261.886719 316.800781 253.355469 316.414062 245.773438 312.019531 C 235.382812 308.304688 222.257812 289.957031 214.40625 278.082031 L 185.382812 231.566406 L 156.359375 278.082031 C 148.507812 289.957031 135.382812 308.304688 124.992188 312.019531 C 117.410156 316.414062 108.878906 316.800781 102.898438 312.238281 C 95.648438 306.703125 94.4375 295.617188 99.265625 285.476562 C 103.105469 274.820312 114.183594 261.21875 122.597656 252.308594 L 167.796875 203.382812 L 150.550781 175.742188 C 150.550781 175.742188 130.066406 175.808594 127.582031 173.464844 C 125.097656 171.128906 69.78125 88.941406 69.78125 88.941406 L 72.238281 87.066406 L 121.265625 148.640625 C 121.265625 148.640625 123.699219 151.871094 126.671875 149.59375 C 128.730469 148.011719 128.886719 146.679688 127.054688 144.035156 C 125.222656 141.390625 79.371094 81.621094 79.371094 81.621094 L 82.703125 79.078125 L 131.851562 140.664062 C 131.851562 140.664062 133.691406 143.253906 136.160156 141.785156 C 136.425781 141.628906 136.636719 141.492188 136.800781 141.382812 C 136.953125 141.253906 137.136719 141.082031 137.355469 140.871094 C 139.425781 138.878906 137.414062 136.417969 137.414062 136.417969 L 90.984375 72.757812 L 94.25 70.261719 C 94.25 70.261719 139.859375 130.214844 141.929688 132.679688 C 143.996094 135.144531 145.324219 135.34375 147.390625 133.777344 C 150.371094 131.511719 147.898438 128.308594 147.898438 128.308594 L 101.445312 64.769531 L 103.902344 62.898438 C 103.902344 62.898438 168.578125 137.9375 170.175781 140.953125 C 171.773438 143.964844 166.3125 163.710938 166.3125 163.710938 L 185.382812 184.351562 L 204.453125 163.710938 C 204.453125 163.710938 198.988281 143.964844 200.589844 140.953125 C 202.1875 137.9375 266.863281 62.898438 266.863281 62.898438 L 269.320312 64.769531 L 222.867188 128.308594 C 222.867188 128.308594 220.394531 131.511719 223.375 133.777344 C 225.441406 135.34375 226.769531 135.144531 228.839844 132.679688 C 230.90625 130.214844 276.515625 70.261719 276.515625 70.261719 L 279.785156 72.757812 L 233.351562 136.417969 C 233.351562 136.417969 231.339844 138.878906 233.40625 140.871094 C 233.632812 141.082031 233.8125 141.253906 233.960938 141.382812 C 234.132812 141.492188 234.339844 141.628906 234.605469 141.785156 C 237.074219 143.253906 238.914062 140.664062 238.914062 140.664062 L 288.0625 79.078125 L 291.394531 81.621094 C 291.394531 81.621094 245.539062 141.390625 243.710938 144.035156 C 241.878906 146.679688 242.035156 148.011719 244.09375 149.59375 C 247.066406 151.871094 249.5 148.640625 249.5 148.640625 L 298.527344 87.066406 L 300.980469 88.941406 C 300.980469 88.941406 245.667969 171.128906 243.183594 173.464844 C 240.695312 175.808594 220.21875 175.742188 220.21875 175.742188 L 202.964844 203.382812 L 248.167969 252.308594 C 256.582031 261.21875 267.664062 274.820312 271.5 285.476562 Z M 2.65625 278.773438 L 185.417969 349.648438 L 368.109375 282.878906 L 368.109375 101.351562 L 190.027344 28.746094 L 2.65625 97.289062 Z M 185.347656 356.761719 L -3.996094 283.332031 L -3.996094 92.636719 L 190.15625 21.613281 L 374.761719 96.878906 L 374.761719 287.535156 L 185.347656 356.761719 " fill-opacity="1" fill-rule="nonzero"/></g></svg>