<svg xmlns="http://www.w3.org/2000/svg" xmlns:xlink="http://www.w3.org/1999/xlink" width="500" zoomAndPan="magnify" viewBox="0 0 375 374.999991" height="500" preserveAspectRatio="xMidYMid meet" version="1.0"><defs><clipPath id="8fc4576073"><path d="M 227 226 L 375 226 L 375 374.734375 L 227 374.734375 Z M 227 226 " clip-rule="nonzero"/></clipPath></defs><path fill="#040606" d="M 192.425781 184.171875 C 190.664062 183.003906 188.300781 183.570312 186.535156 184.738281 C 164.261719 200.019531 136.695312 200.019531 113.792969 184.738281 C 112.0625 183.570312 109.695312 183.570312 107.933594 184.171875 C 83.296875 196.488281 63.355469 218.195312 51.035156 245.761719 C 26.402344 221.125 11.71875 187.101562 11.71875 150.144531 C 11.71875 73.875 73.90625 11.683594 150.179688 11.683594 C 226.453125 11.683594 288.609375 73.875 288.609375 150.144531 C 288.609375 187.699219 273.960938 221.722656 249.324219 246.359375 C 236.972656 218.195312 216.464844 196.488281 192.425781 184.171875 Z M 300.359375 150.144531 C 300.359375 67.417969 232.910156 -0.0351562 150.179688 -0.0351562 C 67.484375 -0.0351562 0 67.417969 0 150.144531 C 0 282.148438 160.734375 349.597656 254.015625 258.078125 C 282.148438 230.511719 300.359375 192.394531 300.359375 150.144531 " fill-opacity="1" fill-rule="nonzero"/><path fill="#040606" d="M 150.179688 58.027344 C 116.753906 58.027344 89.753906 85.027344 89.753906 118.453125 C 89.753906 151.910156 116.753906 178.878906 150.179688 178.878906 C 183.605469 178.878906 210.605469 151.910156 210.605469 118.453125 C 210.605469 85.027344 183.605469 58.027344 150.179688 58.027344 " fill-opacity="1" fill-rule="nonzero"/><g clip-path="url(#8fc4576073)"><path fill="#040606" d="M 292.136719 226.984375 C 276.890625 255.148438 252.820312 278.019531 227.015625 292.101562 L 296.265625 361.316406 C 313.84375 378.929688 343.171875 379.527344 361.351562 361.316406 C 379.527344 343.738281 379.527344 314.410156 361.351562 296.199219 L 292.136719 226.984375 " fill-opacity="1" fill-rule="nonzero"/></g></svg>