<svg xmlns="http://www.w3.org/2000/svg" xmlns:xlink="http://www.w3.org/1999/xlink" width="200" zoomAndPan="magnify" viewBox="0 0 150 149.999998" height="200" preserveAspectRatio="xMidYMid meet" version="1.0"><path fill="#222222" d="M 96.414062 109.6875 L 133.152344 146.414062 C 136.789062 150.050781 142.695312 150.050781 146.335938 146.410156 C 149.972656 142.773438 149.96875 136.867188 146.332031 133.226562 L 109.617188 96.527344 C 117.003906 86.480469 121.367188 74.074219 121.367188 60.65625 C 121.367188 27.179688 94.191406 0 60.710938 0 C 27.234375 0 0.0546875 27.179688 0.0546875 60.65625 C 0.0546875 94.132812 27.234375 121.3125 60.710938 121.3125 C 74.054688 121.3125 86.394531 116.996094 96.414062 109.6875 Z M 60.710938 18.644531 C 83.902344 18.644531 102.726562 37.46875 102.726562 60.65625 C 102.726562 83.84375 83.902344 102.671875 60.710938 102.671875 C 37.523438 102.671875 18.699219 83.84375 18.699219 60.65625 C 18.699219 37.46875 37.523438 18.644531 60.710938 18.644531 Z M 60.710938 18.644531 " fill-opacity="1" fill-rule="evenodd"/></svg>